<svg width="24" height="24" viewBox="0 0 24 24" fill="none" xmlns="http://www.w3.org/2000/svg">
  <path d="M12 2C6.477 2 2 6.477 2 12C2 16.237 4.636 19.855 8.356 21.312C8.284 20.548 8.223 19.374 8.415 18.545L9.599 13.485C9.599 13.485 9.282 12.851 9.282 11.908C9.282 10.447 10.152 9.354 11.241 9.354C12.17 9.354 12.622 10.049 12.622 10.881C12.622 11.807 12.025 13.193 11.718 14.474C11.461 15.544 12.253 16.415 13.307 16.415C15.212 16.415 16.681 14.407 16.681 11.492C16.681 8.899 14.81 7.083 11.952 7.083C8.678 7.083 6.746 9.496 6.746 11.772C6.746 12.698 7.097 13.689 7.536 14.223C7.625 14.333 7.637 14.429 7.612 14.539L7.241 16.042C7.203 16.208 7.101 16.249 6.928 16.166C5.552 15.522 4.693 13.571 4.693 11.726C4.693 8.344 7.126 5.244 12.238 5.244C16.371 5.244 19.568 8.147 19.568 11.442C19.568 14.886 17.244 17.628 14.032 17.628C12.932 17.628 11.897 17.053 11.556 16.375L10.836 19.076C10.548 20.144 9.784 21.474 9.285 22.287C10.461 22.656 11.707 22.857 13 22.857C18.523 22.857 23 18.38 23 12.857C23 6.477 18.523 2 12 2Z" stroke="#0B0F19" stroke-width="2" stroke-linecap="round" stroke-linejoin="round"/>
</svg>
