<svg width="24" height="24" viewBox="0 0 24 24" fill="none" xmlns="http://www.w3.org/2000/svg">
  <path d="M21.5 2V8H15.5" stroke="#0B0F19" stroke-width="2" stroke-linecap="square" stroke-linejoin="miter"/>
  <path d="M2.5 22V16H8.5" stroke="#0B0F19" stroke-width="2" stroke-linecap="square" stroke-linejoin="miter"/>
  <path d="M19.13 8C18.5031 6.58312 17.5107 5.35769 16.2537 4.44664C14.9968 3.53558 13.5209 2.97238 11.9759 2.81183C10.431 2.65128 8.87316 2.89925 7.46209 3.52954C6.05103 4.15984 4.83768 5.15154 3.94 6.4L2.5 8.5M21.5 15.5L20.06 17.6C19.1623 18.8485 17.949 19.8402 16.5379 20.4705C15.1268 21.1007 13.569 21.3487 12.024 21.1882C10.4791 21.0276 9.00319 20.4644 7.74625 19.5534C6.48931 18.6423 5.49695 17.4169 4.87 16" stroke="#0B0F19" stroke-width="2" stroke-linecap="square" stroke-linejoin="miter"/>
</svg>
