<svg width="24" height="24" viewBox="0 0 24 24" fill="none" xmlns="http://www.w3.org/2000/svg">
  <path d="M12.206 2.024C10.322 2.024 9.034 2.816 8.234 3.586C7.312 4.466 6.904 5.586 6.904 6.828V11.328C6.904 11.508 6.832 11.68 6.702 11.808C6.572 11.936 6.396 12.008 6.216 12.008C5.888 12.008 5.572 12.198 5.412 12.488C5.252 12.778 5.272 13.13 5.464 13.402C5.656 13.674 5.99 13.828 6.34 13.808C6.97 13.778 7.406 14.028 7.836 14.398C8.324 14.818 8.854 15.278 9.796 15.598C9.796 16.088 9.496 16.508 8.936 16.808C8.37 17.112 7.592 17.268 6.67 17.268C6.35 17.268 6.074 17.468 5.966 17.764C5.858 18.06 5.942 18.39 6.178 18.596C7.328 19.596 8.748 19.996 10.11 20.326C10.716 20.466 11.294 20.596 11.796 20.766C11.93 20.816 12.03 20.916 12.074 21.042C12.118 21.168 12.102 21.308 12.03 21.422C11.792 21.794 11.31 22.01 10.676 22.01C10.394 22.01 10.13 22.184 10.01 22.446C9.89 22.708 9.936 23.016 10.13 23.234C10.544 23.706 11.246 24.004 12.044 24.004C12.734 24.004 13.356 23.774 13.816 23.366C14.274 22.96 14.55 22.392 14.592 21.764C14.776 21.714 14.966 21.678 15.158 21.642C15.718 21.542 16.318 21.434 16.904 21.17C17.984 20.716 18.916 19.954 19.764 19.004C20.044 18.698 20.058 18.246 19.802 17.924C19.546 17.602 19.102 17.492 18.72 17.66C18.248 17.866 17.696 17.97 17.126 17.97C16.522 17.97 15.972 17.854 15.524 17.626C15.076 17.398 14.756 17.07 14.596 16.674C15.386 16.452 15.996 16.056 16.506 15.636C16.962 15.266 17.366 14.924 17.906 14.794C18.17 14.732 18.448 14.702 18.746 14.702C19.136 14.702 19.498 14.532 19.726 14.242C19.954 13.952 20.018 13.576 19.898 13.234C19.778 12.892 19.486 12.632 19.128 12.546C18.77 12.46 18.39 12.558 18.116 12.808C17.962 12.95 17.766 13.028 17.562 13.028C17.232 13.028 16.916 12.858 16.73 12.582C16.544 12.306 16.508 11.96 16.632 11.654C17.032 10.554 17.232 9.354 17.232 8.104V6.804C17.232 5.544 16.822 4.406 15.89 3.516C15.08 2.746 13.804 2.024 12.206 2.024Z" stroke="#0B0F19" stroke-width="2" stroke-linecap="round" stroke-linejoin="round"/>
</svg>
