<svg width="24" height="24" viewBox="0 0 24 24" fill="none" xmlns="http://www.w3.org/2000/svg">
  <path d="M21 11.5C21.0033 13.1809 20.5597 14.8313 19.7158 16.2889C18.8719 17.7465 17.6565 18.9592 16.1907 19.8013C14.725 20.6434 13.0625 21.0852 11.3827 21.0819C9.70287 21.0787 8.04201 20.6305 6.57919 19.7828L3 21L4.21721 17.4208C3.36952 15.9579 2.92131 14.2971 2.91796 12.6073C2.9146 10.9175 3.35617 9.25494 4.19825 7.78917C5.04033 6.32341 6.25298 5.10802 7.71064 4.26409C9.16829 3.42017 10.8187 2.97654 12.4996 2.97983C16.0425 2.98645 19.4191 4.39277 21.9203 6.89397C24.4215 9.39516 25.828 12.7717 25.8346 16.3146" stroke="#0B0F19" stroke-width="2" stroke-linecap="round" stroke-linejoin="round"/>
  <path d="M8.5 9.5C8.5 9.5 9 9 9.5 9C10 9 10.5 9.5 10.5 9.5C10.5 9.5 11 10 11.5 11.5C12 13 13 14.5 14.5 16C16 17.5 17.5 18.5 19 19C20.5 19.5 21 20 21 20C21 20 21.5 20.5 21.5 21C21.5 21.5 21 22 21 22C21 22 20 23 19 22.5C18 22 16.5 21 15 19.5C13.5 18 12 16.5 11 14.5C10 12.5 9.5 11 9 10C8.5 9 8.5 8 9.5 8C10 8 10.5 8.5 10.5 8.5" stroke="#0B0F19" stroke-width="2" stroke-linecap="round" stroke-linejoin="round"/>
</svg>
